{
    "asset" : {
        "generator" : "Khronos glTF Blender I/O v1.7.33",
        "version" : "2.0"
    },
    "scene" : 0,
    "scenes" : [
        {
            "name" : "Scene",
            "nodes" : [
                0,
                1,
                2,
                3,
                4,
                5,
                6,
                7,
                8,
                9,
                10
            ]
        }
    ],
    "nodes" : [
        {
            "mesh" : 0,
            "name" : "Cube",
            "translation" : [
                -1.6153907775878906,
                0.9328219294548035,
                0.008525371551513672
            ]
        },
        {
            "mesh" : 1,
            "name" : "Cube.001",
            "translation" : [
                -0.8856799006462097,
                0.028969764709472656,
                -1.4508962631225586
            ]
        },
        {
            "mesh" : 2,
            "name" : "Cube.002",
            "translation" : [
                -2.3451015949249268,
                0.028969764709472656,
                -1.4508962631225586
            ]
        },
        {
            "mesh" : 3,
            "name" : "Cube.003",
            "translation" : [
                -0.8856799006462097,
                0.028969764709472656,
                1.4859647750854492
            ]
        },
        {
            "mesh" : 4,
            "name" : "Cube.004",
            "translation" : [
                -2.3451015949249268,
                0.028969764709472656,
                1.4859647750854492
            ]
        },
        {
            "mesh" : 5,
            "name" : "Cube.005",
            "rotation" : [
                0,
                -0.18379637598991394,
                0,
                0.9829643368721008
            ],
            "scale" : [
                1.534888505935669,
                2.075788736343384,
                1.5818021297454834
            ],
            "translation" : [
                0.24323132634162903,
                -0.15529635548591614,
                0.10422255098819733
            ]
        },
        {
            "mesh" : 6,
            "name" : "Cube.006",
            "rotation" : [
                -0.5833803415298462,
                0.39958399534225464,
                0.39958399534225464,
                0.5833803415298462
            ],
            "scale" : [
                1.5818021297454834,
                2.7069461345672607,
                2.075788736343384
            ],
            "translation" : [
                0.6943027973175049,
                0.6743862628936768,
                0.2790180444717407
            ]
        },
        {
            "mesh" : 7,
            "name" : "Cube.007",
            "rotation" : [
                0,
                -0.18379637598991394,
                0,
                0.9829643368721008
            ],
            "translation" : [
                0.8932573795318604,
                -0.23088237643241882,
                -0.23347610235214233
            ]
        },
        {
            "mesh" : 8,
            "name" : "Cube.008",
            "rotation" : [
                0,
                -0.18379637598991394,
                0,
                0.9829643368721008
            ],
            "translation" : [
                0.49314484000205994,
                -0.23088237643241882,
                0.7990411520004272
            ]
        },
        {
            "mesh" : 9,
            "name" : "Cube.009",
            "rotation" : [
                0,
                -0.18379637598991394,
                0,
                0.9829643368721008
            ],
            "translation" : [
                -0.04592496156692505,
                -0.23088237643241882,
                -0.597420334815979
            ]
        },
        {
            "mesh" : 10,
            "name" : "Cube.010",
            "rotation" : [
                0,
                -0.18379637598991394,
                0,
                0.9829643368721008
            ],
            "translation" : [
                -0.4460374712944031,
                -0.23088237643241882,
                0.43509697914123535
            ]
        }
    ],
    "materials" : [
        {
            "doubleSided" : true,
            "name" : "chair_blue",
            "pbrMetallicRoughness" : {
                "baseColorFactor" : [
                    0.8000000715255737,
                    0.27567335963249207,
                    0.28821852803230286,
                    1
                ],
                "metallicFactor" : 0,
                "roughnessFactor" : 0.5
            }
        },
        {
            "doubleSided" : true,
            "name" : "purple001",
            "pbrMetallicRoughness" : {
                "baseColorFactor" : [
                    0.8000000715255737,
                    0.19759730994701385,
                    0.05917970836162567,
                    1
                ],
                "roughnessFactor" : 0.15270936489105225
            }
        }
    ],
    "meshes" : [
        {
            "name" : "Cube",
            "primitives" : [
                {
                    "attributes" : {
                        "POSITION" : 0,
                        "NORMAL" : 1,
                        "TEXCOORD_0" : 2
                    },
                    "indices" : 3,
                    "material" : 0
                },
                {
                    "attributes" : {
                        "POSITION" : 4,
                        "NORMAL" : 5,
                        "TEXCOORD_0" : 6
                    },
                    "indices" : 7,
                    "material" : 1
                }
            ]
        },
        {
            "name" : "Cube.001",
            "primitives" : [
                {
                    "attributes" : {
                        "POSITION" : 8,
                        "NORMAL" : 9,
                        "TEXCOORD_0" : 10
                    },
                    "indices" : 11,
                    "material" : 1
                }
            ]
        },
        {
            "name" : "Cube.003",
            "primitives" : [
                {
                    "attributes" : {
                        "POSITION" : 12,
                        "NORMAL" : 13,
                        "TEXCOORD_0" : 14
                    },
                    "indices" : 11,
                    "material" : 1
                }
            ]
        },
        {
            "name" : "Cube.004",
            "primitives" : [
                {
                    "attributes" : {
                        "POSITION" : 15,
                        "NORMAL" : 16,
                        "TEXCOORD_0" : 17
                    },
                    "indices" : 11,
                    "material" : 1
                }
            ]
        },
        {
            "name" : "Cube.005",
            "primitives" : [
                {
                    "attributes" : {
                        "POSITION" : 18,
                        "NORMAL" : 19,
                        "TEXCOORD_0" : 20
                    },
                    "indices" : 11,
                    "material" : 1
                }
            ]
        },
        {
            "name" : "Cube.006",
            "primitives" : [
                {
                    "attributes" : {
                        "POSITION" : 21,
                        "NORMAL" : 22,
                        "TEXCOORD_0" : 23
                    },
                    "indices" : 24,
                    "material" : 0
                }
            ]
        },
        {
            "name" : "Cube.007",
            "primitives" : [
                {
                    "attributes" : {
                        "POSITION" : 25,
                        "NORMAL" : 26,
                        "TEXCOORD_0" : 27
                    },
                    "indices" : 28,
                    "material" : 1
                }
            ]
        },
        {
            "name" : "Cube.008",
            "primitives" : [
                {
                    "attributes" : {
                        "POSITION" : 29,
                        "NORMAL" : 30,
                        "TEXCOORD_0" : 31
                    },
                    "indices" : 32,
                    "material" : 1
                }
            ]
        },
        {
            "name" : "Cube.009",
            "primitives" : [
                {
                    "attributes" : {
                        "POSITION" : 33,
                        "NORMAL" : 34,
                        "TEXCOORD_0" : 35
                    },
                    "indices" : 32,
                    "material" : 1
                }
            ]
        },
        {
            "name" : "Cube.010",
            "primitives" : [
                {
                    "attributes" : {
                        "POSITION" : 36,
                        "NORMAL" : 37,
                        "TEXCOORD_0" : 38
                    },
                    "indices" : 39,
                    "material" : 1
                }
            ]
        },
        {
            "name" : "Cube.011",
            "primitives" : [
                {
                    "attributes" : {
                        "POSITION" : 40,
                        "NORMAL" : 41,
                        "TEXCOORD_0" : 42
                    },
                    "indices" : 39,
                    "material" : 1
                }
            ]
        }
    ],
    "accessors" : [
        {
            "bufferView" : 0,
            "componentType" : 5126,
            "count" : 1188,
            "max" : [
                1,
                0.16507351398468018,
                1.7375874519348145
            ],
            "min" : [
                -1,
                -0.16507351398468018,
                -1.7375874519348145
            ],
            "type" : "VEC3"
        },
        {
            "bufferView" : 1,
            "componentType" : 5126,
            "count" : 1188,
            "type" : "VEC3"
        },
        {
            "bufferView" : 2,
            "componentType" : 5126,
            "count" : 1188,
            "type" : "VEC2"
        },
        {
            "bufferView" : 3,
            "componentType" : 5123,
            "count" : 1782,
            "type" : "SCALAR"
        },
        {
            "bufferView" : 4,
            "componentType" : 5126,
            "count" : 20,
            "max" : [
                0.7814981341362,
                0.19579558074474335,
                1.5190856456756592
            ],
            "min" : [
                -0.7814981341362,
                0.16507351398468018,
                -1.5190856456756592
            ],
            "type" : "VEC3"
        },
        {
            "bufferView" : 5,
            "componentType" : 5126,
            "count" : 20,
            "type" : "VEC3"
        },
        {
            "bufferView" : 6,
            "componentType" : 5126,
            "count" : 20,
            "type" : "VEC2"
        },
        {
            "bufferView" : 7,
            "componentType" : 5123,
            "count" : 30,
            "type" : "SCALAR"
        },
        {
            "bufferView" : 8,
            "componentType" : 5126,
            "count" : 1176,
            "max" : [
                0.1540905237197876,
                0.9070926904678345,
                0.1540905237197876
            ],
            "min" : [
                -0.1540905237197876,
                -0.9070926904678345,
                -0.1540905237197876
            ],
            "type" : "VEC3"
        },
        {
            "bufferView" : 9,
            "componentType" : 5126,
            "count" : 1176,
            "type" : "VEC3"
        },
        {
            "bufferView" : 10,
            "componentType" : 5126,
            "count" : 1176,
            "type" : "VEC2"
        },
        {
            "bufferView" : 11,
            "componentType" : 5123,
            "count" : 1764,
            "type" : "SCALAR"
        },
        {
            "bufferView" : 12,
            "componentType" : 5126,
            "count" : 1176,
            "max" : [
                0.1540905237197876,
                0.9070926904678345,
                0.1540905237197876
            ],
            "min" : [
                -0.1540905237197876,
                -0.9070926904678345,
                -0.1540905237197876
            ],
            "type" : "VEC3"
        },
        {
            "bufferView" : 13,
            "componentType" : 5126,
            "count" : 1176,
            "type" : "VEC3"
        },
        {
            "bufferView" : 14,
            "componentType" : 5126,
            "count" : 1176,
            "type" : "VEC2"
        },
        {
            "bufferView" : 15,
            "componentType" : 5126,
            "count" : 1176,
            "max" : [
                0.1540905237197876,
                0.9070926904678345,
                0.1540905237197876
            ],
            "min" : [
                -0.1540905237197876,
                -0.9070926904678345,
                -0.1540905237197876
            ],
            "type" : "VEC3"
        },
        {
            "bufferView" : 16,
            "componentType" : 5126,
            "count" : 1176,
            "type" : "VEC3"
        },
        {
            "bufferView" : 17,
            "componentType" : 5126,
            "count" : 1176,
            "type" : "VEC2"
        },
        {
            "bufferView" : 18,
            "componentType" : 5126,
            "count" : 1176,
            "max" : [
                0.1540905237197876,
                0.9070926904678345,
                0.1540905237197876
            ],
            "min" : [
                -0.1540905237197876,
                -0.9070926904678345,
                -0.1540905237197876
            ],
            "type" : "VEC3"
        },
        {
            "bufferView" : 19,
            "componentType" : 5126,
            "count" : 1176,
            "type" : "VEC3"
        },
        {
            "bufferView" : 20,
            "componentType" : 5126,
            "count" : 1176,
            "type" : "VEC2"
        },
        {
            "bufferView" : 21,
            "componentType" : 5126,
            "count" : 1176,
            "max" : [
                0.4540337324142456,
                0.057883914560079575,
                0.4540337324142456
            ],
            "min" : [
                -0.4540337324142456,
                -0.057883914560079575,
                -0.4540337324142456
            ],
            "type" : "VEC3"
        },
        {
            "bufferView" : 22,
            "componentType" : 5126,
            "count" : 1176,
            "type" : "VEC3"
        },
        {
            "bufferView" : 23,
            "componentType" : 5126,
            "count" : 1176,
            "type" : "VEC2"
        },
        {
            "bufferView" : 24,
            "componentType" : 5123,
            "count" : 1764,
            "type" : "SCALAR"
        },
        {
            "bufferView" : 25,
            "componentType" : 5126,
            "count" : 1176,
            "max" : [
                0.4540337324142456,
                0.057883914560079575,
                0.22752897441387177
            ],
            "min" : [
                -0.4540337324142456,
                -0.057883914560079575,
                -0.22752897441387177
            ],
            "type" : "VEC3"
        },
        {
            "bufferView" : 26,
            "componentType" : 5126,
            "count" : 1176,
            "type" : "VEC3"
        },
        {
            "bufferView" : 27,
            "componentType" : 5126,
            "count" : 1176,
            "type" : "VEC2"
        },
        {
            "bufferView" : 28,
            "componentType" : 5123,
            "count" : 1764,
            "type" : "SCALAR"
        },
        {
            "bufferView" : 29,
            "componentType" : 5126,
            "count" : 1176,
            "max" : [
                0.08942463994026184,
                0.6402914524078369,
                0.08942463994026184
            ],
            "min" : [
                -0.08942463994026184,
                -0.6402914524078369,
                -0.08942463994026184
            ],
            "type" : "VEC3"
        },
        {
            "bufferView" : 30,
            "componentType" : 5126,
            "count" : 1176,
            "type" : "VEC3"
        },
        {
            "bufferView" : 31,
            "componentType" : 5126,
            "count" : 1176,
            "type" : "VEC2"
        },
        {
            "bufferView" : 32,
            "componentType" : 5123,
            "count" : 1764,
            "type" : "SCALAR"
        },
        {
            "bufferView" : 33,
            "componentType" : 5126,
            "count" : 1176,
            "max" : [
                0.08942463994026184,
                0.6402914524078369,
                0.08942463994026184
            ],
            "min" : [
                -0.08942463994026184,
                -0.6402914524078369,
                -0.08942463994026184
            ],
            "type" : "VEC3"
        },
        {
            "bufferView" : 34,
            "componentType" : 5126,
            "count" : 1176,
            "type" : "VEC3"
        },
        {
            "bufferView" : 35,
            "componentType" : 5126,
            "count" : 1176,
            "type" : "VEC2"
        },
        {
            "bufferView" : 36,
            "componentType" : 5126,
            "count" : 1176,
            "max" : [
                0.08942463994026184,
                0.08968263864517212,
                0.08942463994026184
            ],
            "min" : [
                -0.08942463994026184,
                -0.6402914524078369,
                -0.08942463994026184
            ],
            "type" : "VEC3"
        },
        {
            "bufferView" : 37,
            "componentType" : 5126,
            "count" : 1176,
            "type" : "VEC3"
        },
        {
            "bufferView" : 38,
            "componentType" : 5126,
            "count" : 1176,
            "type" : "VEC2"
        },
        {
            "bufferView" : 39,
            "componentType" : 5123,
            "count" : 1764,
            "type" : "SCALAR"
        },
        {
            "bufferView" : 40,
            "componentType" : 5126,
            "count" : 1176,
            "max" : [
                0.08942463994026184,
                0.08968263864517212,
                0.08942463994026184
            ],
            "min" : [
                -0.08942463994026184,
                -0.6402914524078369,
                -0.08942463994026184
            ],
            "type" : "VEC3"
        },
        {
            "bufferView" : 41,
            "componentType" : 5126,
            "count" : 1176,
            "type" : "VEC3"
        },
        {
            "bufferView" : 42,
            "componentType" : 5126,
            "count" : 1176,
            "type" : "VEC2"
        }
    ],
    "bufferViews" : [
        {
            "buffer" : 0,
            "byteLength" : 14256,
            "byteOffset" : 0
        },
        {
            "buffer" : 0,
            "byteLength" : 14256,
            "byteOffset" : 14256
        },
        {
            "buffer" : 0,
            "byteLength" : 9504,
            "byteOffset" : 28512
        },
        {
            "buffer" : 0,
            "byteLength" : 3564,
            "byteOffset" : 38016
        },
        {
            "buffer" : 0,
            "byteLength" : 240,
            "byteOffset" : 41580
        },
        {
            "buffer" : 0,
            "byteLength" : 240,
            "byteOffset" : 41820
        },
        {
            "buffer" : 0,
            "byteLength" : 160,
            "byteOffset" : 42060
        },
        {
            "buffer" : 0,
            "byteLength" : 60,
            "byteOffset" : 42220
        },
        {
            "buffer" : 0,
            "byteLength" : 14112,
            "byteOffset" : 42280
        },
        {
            "buffer" : 0,
            "byteLength" : 14112,
            "byteOffset" : 56392
        },
        {
            "buffer" : 0,
            "byteLength" : 9408,
            "byteOffset" : 70504
        },
        {
            "buffer" : 0,
            "byteLength" : 3528,
            "byteOffset" : 79912
        },
        {
            "buffer" : 0,
            "byteLength" : 14112,
            "byteOffset" : 83440
        },
        {
            "buffer" : 0,
            "byteLength" : 14112,
            "byteOffset" : 97552
        },
        {
            "buffer" : 0,
            "byteLength" : 9408,
            "byteOffset" : 111664
        },
        {
            "buffer" : 0,
            "byteLength" : 14112,
            "byteOffset" : 121072
        },
        {
            "buffer" : 0,
            "byteLength" : 14112,
            "byteOffset" : 135184
        },
        {
            "buffer" : 0,
            "byteLength" : 9408,
            "byteOffset" : 149296
        },
        {
            "buffer" : 0,
            "byteLength" : 14112,
            "byteOffset" : 158704
        },
        {
            "buffer" : 0,
            "byteLength" : 14112,
            "byteOffset" : 172816
        },
        {
            "buffer" : 0,
            "byteLength" : 9408,
            "byteOffset" : 186928
        },
        {
            "buffer" : 0,
            "byteLength" : 14112,
            "byteOffset" : 196336
        },
        {
            "buffer" : 0,
            "byteLength" : 14112,
            "byteOffset" : 210448
        },
        {
            "buffer" : 0,
            "byteLength" : 9408,
            "byteOffset" : 224560
        },
        {
            "buffer" : 0,
            "byteLength" : 3528,
            "byteOffset" : 233968
        },
        {
            "buffer" : 0,
            "byteLength" : 14112,
            "byteOffset" : 237496
        },
        {
            "buffer" : 0,
            "byteLength" : 14112,
            "byteOffset" : 251608
        },
        {
            "buffer" : 0,
            "byteLength" : 9408,
            "byteOffset" : 265720
        },
        {
            "buffer" : 0,
            "byteLength" : 3528,
            "byteOffset" : 275128
        },
        {
            "buffer" : 0,
            "byteLength" : 14112,
            "byteOffset" : 278656
        },
        {
            "buffer" : 0,
            "byteLength" : 14112,
            "byteOffset" : 292768
        },
        {
            "buffer" : 0,
            "byteLength" : 9408,
            "byteOffset" : 306880
        },
        {
            "buffer" : 0,
            "byteLength" : 3528,
            "byteOffset" : 316288
        },
        {
            "buffer" : 0,
            "byteLength" : 14112,
            "byteOffset" : 319816
        },
        {
            "buffer" : 0,
            "byteLength" : 14112,
            "byteOffset" : 333928
        },
        {
            "buffer" : 0,
            "byteLength" : 9408,
            "byteOffset" : 348040
        },
        {
            "buffer" : 0,
            "byteLength" : 14112,
            "byteOffset" : 357448
        },
        {
            "buffer" : 0,
            "byteLength" : 14112,
            "byteOffset" : 371560
        },
        {
            "buffer" : 0,
            "byteLength" : 9408,
            "byteOffset" : 385672
        },
        {
            "buffer" : 0,
            "byteLength" : 3528,
            "byteOffset" : 395080
        },
        {
            "buffer" : 0,
            "byteLength" : 14112,
            "byteOffset" : 398608
        },
        {
            "buffer" : 0,
            "byteLength" : 14112,
            "byteOffset" : 412720
        },
        {
            "buffer" : 0,
            "byteLength" : 9408,
            "byteOffset" : 426832
        }
    ],
    "buffers" : [
        {
            "byteLength" : 436240,
            "uri" : "desk_and_chair.bin"
        }
    ]
}
