{
    "asset" : {
        "generator" : "Khronos glTF Blender I/O v1.7.33",
        "version" : "2.0"
    },
    "scene" : 0,
    "scenes" : [
        {
            "name" : "Scene",
            "nodes" : [
                0,
                1,
                2,
                3,
                4,
                5,
                6,
                7,
                8
            ]
        }
    ],
    "nodes" : [
        {
            "mesh" : 0,
            "name" : "Cube.001",
            "scale" : [
                1,
                1,
                0.5163310170173645
            ],
            "translation" : [
                2.7382028102874756,
                1.615574836730957,
                0
            ]
        },
        {
            "mesh" : 1,
            "name" : "Cube.002",
            "translation" : [
                2.7382028102874756,
                3.615574836730957,
                0
            ]
        },
        {
            "mesh" : 2,
            "name" : "Cube.003",
            "scale" : [
                1,
                -0.32113444805145264,
                0.8668279051780701
            ],
            "translation" : [
                2.7382028102874756,
                -1.3837664127349854,
                0
            ]
        },
        {
            "mesh" : 3,
            "name" : "Cube.004",
            "scale" : [
                1,
                1,
                1.2033946514129639
            ],
            "translation" : [
                2.7382028102874756,
                -2.495554208755493,
                0
            ]
        },
        {
            "mesh" : 4,
            "name" : "Cube.005",
            "scale" : [
                1,
                1,
                1.2033946514129639
            ],
            "translation" : [
                2.7382028102874756,
                -2.9758968353271484,
                0
            ]
        },
        {
            "mesh" : 5,
            "name" : "Cube.006",
            "rotation" : [
                0.30070579051971436,
                0,
                0,
                0.9537169337272644
            ],
            "scale" : [
                1.3020362854003906,
                1.3020362854003906,
                1.3020362854003906
            ],
            "translation" : [
                0,
                0,
                -3
            ]
        },
        {
            "mesh" : 6,
            "name" : "Cube.007",
            "rotation" : [
                -0.30070579051971436,
                0,
                0,
                0.9537169337272644
            ],
            "scale" : [
                1.3020362854003906,
                1.3020362854003906,
                1.3020362854003906
            ],
            "translation" : [
                0,
                0,
                3
            ]
        },
        {
            "mesh" : 7,
            "name" : "Cube.008",
            "rotation" : [
                0.7071068286895752,
                0,
                0,
                0.7071068286895752
            ],
            "scale" : [
                1.302036166191101,
                1.302036166191101,
                0.9356656074523926
            ],
            "translation" : [
                0,
                -5.347476959228516,
                -1
            ]
        },
        {
            "mesh" : 8,
            "name" : "Cube.009",
            "rotation" : [
                0.7071068286895752,
                0,
                0,
                0.7071068286895752
            ],
            "scale" : [
                1.302036166191101,
                1.302036166191101,
                0.9356656074523926
            ],
            "translation" : [
                0,
                -5.347476959228516,
                1
            ]
        }
    ],
    "materials" : [
        {
            "doubleSided" : true,
            "name" : "main",
            "pbrMetallicRoughness" : {
                "baseColorFactor" : [
                    0.17064176499843597,
                    0.1706419140100479,
                    0.1706419140100479,
                    1
                ],
                "metallicFactor" : 0
            }
        },
        {
            "doubleSided" : true,
            "name" : "under_eye",
            "pbrMetallicRoughness" : {
                "baseColorFactor" : [
                    0.03954625129699707,
                    0.03954625129699707,
                    0.03954625129699707,
                    1
                ],
                "metallicFactor" : 0,
                "roughnessFactor" : 0.5
            }
        }
    ],
    "meshes" : [
        {
            "name" : "Cube.001",
            "primitives" : [
                {
                    "attributes" : {
                        "POSITION" : 0,
                        "NORMAL" : 1,
                        "TEXCOORD_0" : 2
                    },
                    "indices" : 3,
                    "material" : 0
                }
            ]
        },
        {
            "name" : "Cube.002",
            "primitives" : [
                {
                    "attributes" : {
                        "POSITION" : 4,
                        "NORMAL" : 5,
                        "TEXCOORD_0" : 6
                    },
                    "indices" : 7,
                    "material" : 0
                },
                {
                    "attributes" : {
                        "POSITION" : 8,
                        "NORMAL" : 9,
                        "TEXCOORD_0" : 10
                    },
                    "indices" : 11,
                    "material" : 1
                }
            ]
        },
        {
            "name" : "Cube.003",
            "primitives" : [
                {
                    "attributes" : {
                        "POSITION" : 12,
                        "NORMAL" : 13,
                        "TEXCOORD_0" : 14
                    },
                    "indices" : 3,
                    "material" : 0
                }
            ]
        },
        {
            "name" : "Cube.004",
            "primitives" : [
                {
                    "attributes" : {
                        "POSITION" : 15,
                        "NORMAL" : 16,
                        "TEXCOORD_0" : 17
                    },
                    "indices" : 18,
                    "material" : 0
                }
            ]
        },
        {
            "name" : "Cube.005",
            "primitives" : [
                {
                    "attributes" : {
                        "POSITION" : 19,
                        "NORMAL" : 20,
                        "TEXCOORD_0" : 21
                    },
                    "indices" : 22,
                    "material" : 0
                }
            ]
        },
        {
            "name" : "Cube.006",
            "primitives" : [
                {
                    "attributes" : {
                        "POSITION" : 23,
                        "NORMAL" : 24,
                        "TEXCOORD_0" : 25
                    },
                    "indices" : 26,
                    "material" : 0
                }
            ]
        },
        {
            "name" : "Cube.007",
            "primitives" : [
                {
                    "attributes" : {
                        "POSITION" : 27,
                        "NORMAL" : 28,
                        "TEXCOORD_0" : 29
                    },
                    "indices" : 26,
                    "material" : 0
                }
            ]
        },
        {
            "name" : "Cube.008",
            "primitives" : [
                {
                    "attributes" : {
                        "POSITION" : 30,
                        "NORMAL" : 31,
                        "TEXCOORD_0" : 32
                    },
                    "indices" : 26,
                    "material" : 0
                }
            ]
        },
        {
            "name" : "Cube.009",
            "primitives" : [
                {
                    "attributes" : {
                        "POSITION" : 33,
                        "NORMAL" : 34,
                        "TEXCOORD_0" : 35
                    },
                    "indices" : 26,
                    "material" : 0
                }
            ]
        }
    ],
    "accessors" : [
        {
            "bufferView" : 0,
            "componentType" : 5126,
            "count" : 24,
            "max" : [
                0.08125340938568115,
                1.4575157165527344,
                1
            ],
            "min" : [
                -1,
                -2.2702770233154297,
                -1
            ],
            "type" : "VEC3"
        },
        {
            "bufferView" : 1,
            "componentType" : 5126,
            "count" : 24,
            "type" : "VEC3"
        },
        {
            "bufferView" : 2,
            "componentType" : 5126,
            "count" : 24,
            "type" : "VEC2"
        },
        {
            "bufferView" : 3,
            "componentType" : 5123,
            "count" : 36,
            "type" : "SCALAR"
        },
        {
            "bufferView" : 4,
            "componentType" : 5126,
            "count" : 50,
            "max" : [
                0.4234849214553833,
                1,
                2.3105273246765137
            ],
            "min" : [
                -5.099085330963135,
                -8.223001480102539,
                -2.3105273246765137
            ],
            "type" : "VEC3"
        },
        {
            "bufferView" : 5,
            "componentType" : 5126,
            "count" : 50,
            "type" : "VEC3"
        },
        {
            "bufferView" : 6,
            "componentType" : 5126,
            "count" : 50,
            "type" : "VEC2"
        },
        {
            "bufferView" : 7,
            "componentType" : 5123,
            "count" : 78,
            "type" : "SCALAR"
        },
        {
            "bufferView" : 8,
            "componentType" : 5126,
            "count" : 4,
            "max" : [
                0.08125388622283936,
                -0.7173948287963867,
                2.3105273246765137
            ],
            "min" : [
                -1,
                -1,
                -2.3105273246765137
            ],
            "type" : "VEC3"
        },
        {
            "bufferView" : 9,
            "componentType" : 5126,
            "count" : 4,
            "type" : "VEC3"
        },
        {
            "bufferView" : 10,
            "componentType" : 5126,
            "count" : 4,
            "type" : "VEC2"
        },
        {
            "bufferView" : 11,
            "componentType" : 5123,
            "count" : 6,
            "type" : "SCALAR"
        },
        {
            "bufferView" : 12,
            "componentType" : 5126,
            "count" : 24,
            "max" : [
                0.4289499521255493,
                0.7157268524169922,
                1.0508660078048706
            ],
            "min" : [
                -1.0354410409927368,
                -2.2702770233154297,
                -1.0508660078048706
            ],
            "type" : "VEC3"
        },
        {
            "bufferView" : 13,
            "componentType" : 5126,
            "count" : 24,
            "type" : "VEC3"
        },
        {
            "bufferView" : 14,
            "componentType" : 5126,
            "count" : 24,
            "type" : "VEC2"
        },
        {
            "bufferView" : 15,
            "componentType" : 5126,
            "count" : 174,
            "max" : [
                0.08125340938568115,
                0.32793447375297546,
                1.1595019102096558
            ],
            "min" : [
                -1,
                -0.08801757544279099,
                -1.1595019102096558
            ],
            "type" : "VEC3"
        },
        {
            "bufferView" : 16,
            "componentType" : 5126,
            "count" : 174,
            "type" : "VEC3"
        },
        {
            "bufferView" : 17,
            "componentType" : 5126,
            "count" : 174,
            "type" : "VEC2"
        },
        {
            "bufferView" : 18,
            "componentType" : 5123,
            "count" : 324,
            "type" : "SCALAR"
        },
        {
            "bufferView" : 19,
            "componentType" : 5126,
            "count" : 36,
            "max" : [
                0.08125340938568115,
                0.2674090564250946,
                0.6025620698928833
            ],
            "min" : [
                -1,
                -0.08801757544279099,
                -0.6025620698928833
            ],
            "type" : "VEC3"
        },
        {
            "bufferView" : 20,
            "componentType" : 5126,
            "count" : 36,
            "type" : "VEC3"
        },
        {
            "bufferView" : 21,
            "componentType" : 5126,
            "count" : 36,
            "type" : "VEC2"
        },
        {
            "bufferView" : 22,
            "componentType" : 5123,
            "count" : 60,
            "type" : "SCALAR"
        },
        {
            "bufferView" : 23,
            "componentType" : 5126,
            "count" : 600,
            "max" : [
                0.4425974488258362,
                0.4425974488258362,
                1.693681240081787
            ],
            "min" : [
                -0.4425974488258362,
                -0.4425974488258362,
                -1.693681240081787
            ],
            "type" : "VEC3"
        },
        {
            "bufferView" : 24,
            "componentType" : 5126,
            "count" : 600,
            "type" : "VEC3"
        },
        {
            "bufferView" : 25,
            "componentType" : 5126,
            "count" : 600,
            "type" : "VEC2"
        },
        {
            "bufferView" : 26,
            "componentType" : 5123,
            "count" : 900,
            "type" : "SCALAR"
        },
        {
            "bufferView" : 27,
            "componentType" : 5126,
            "count" : 600,
            "max" : [
                0.4425974488258362,
                0.4425974488258362,
                1.693681240081787
            ],
            "min" : [
                -0.4425974488258362,
                -0.4425974488258362,
                -1.693681240081787
            ],
            "type" : "VEC3"
        },
        {
            "bufferView" : 28,
            "componentType" : 5126,
            "count" : 600,
            "type" : "VEC3"
        },
        {
            "bufferView" : 29,
            "componentType" : 5126,
            "count" : 600,
            "type" : "VEC2"
        },
        {
            "bufferView" : 30,
            "componentType" : 5126,
            "count" : 600,
            "max" : [
                0.4425974488258362,
                0.4425974488258362,
                1.693681240081787
            ],
            "min" : [
                -0.4425974488258362,
                -0.4425974488258362,
                -1.693681240081787
            ],
            "type" : "VEC3"
        },
        {
            "bufferView" : 31,
            "componentType" : 5126,
            "count" : 600,
            "type" : "VEC3"
        },
        {
            "bufferView" : 32,
            "componentType" : 5126,
            "count" : 600,
            "type" : "VEC2"
        },
        {
            "bufferView" : 33,
            "componentType" : 5126,
            "count" : 600,
            "max" : [
                0.4425974488258362,
                0.4425974488258362,
                1.693681240081787
            ],
            "min" : [
                -0.4425974488258362,
                -0.4425974488258362,
                -1.693681240081787
            ],
            "type" : "VEC3"
        },
        {
            "bufferView" : 34,
            "componentType" : 5126,
            "count" : 600,
            "type" : "VEC3"
        },
        {
            "bufferView" : 35,
            "componentType" : 5126,
            "count" : 600,
            "type" : "VEC2"
        }
    ],
    "bufferViews" : [
        {
            "buffer" : 0,
            "byteLength" : 288,
            "byteOffset" : 0
        },
        {
            "buffer" : 0,
            "byteLength" : 288,
            "byteOffset" : 288
        },
        {
            "buffer" : 0,
            "byteLength" : 192,
            "byteOffset" : 576
        },
        {
            "buffer" : 0,
            "byteLength" : 72,
            "byteOffset" : 768
        },
        {
            "buffer" : 0,
            "byteLength" : 600,
            "byteOffset" : 840
        },
        {
            "buffer" : 0,
            "byteLength" : 600,
            "byteOffset" : 1440
        },
        {
            "buffer" : 0,
            "byteLength" : 400,
            "byteOffset" : 2040
        },
        {
            "buffer" : 0,
            "byteLength" : 156,
            "byteOffset" : 2440
        },
        {
            "buffer" : 0,
            "byteLength" : 48,
            "byteOffset" : 2596
        },
        {
            "buffer" : 0,
            "byteLength" : 48,
            "byteOffset" : 2644
        },
        {
            "buffer" : 0,
            "byteLength" : 32,
            "byteOffset" : 2692
        },
        {
            "buffer" : 0,
            "byteLength" : 12,
            "byteOffset" : 2724
        },
        {
            "buffer" : 0,
            "byteLength" : 288,
            "byteOffset" : 2736
        },
        {
            "buffer" : 0,
            "byteLength" : 288,
            "byteOffset" : 3024
        },
        {
            "buffer" : 0,
            "byteLength" : 192,
            "byteOffset" : 3312
        },
        {
            "buffer" : 0,
            "byteLength" : 2088,
            "byteOffset" : 3504
        },
        {
            "buffer" : 0,
            "byteLength" : 2088,
            "byteOffset" : 5592
        },
        {
            "buffer" : 0,
            "byteLength" : 1392,
            "byteOffset" : 7680
        },
        {
            "buffer" : 0,
            "byteLength" : 648,
            "byteOffset" : 9072
        },
        {
            "buffer" : 0,
            "byteLength" : 432,
            "byteOffset" : 9720
        },
        {
            "buffer" : 0,
            "byteLength" : 432,
            "byteOffset" : 10152
        },
        {
            "buffer" : 0,
            "byteLength" : 288,
            "byteOffset" : 10584
        },
        {
            "buffer" : 0,
            "byteLength" : 120,
            "byteOffset" : 10872
        },
        {
            "buffer" : 0,
            "byteLength" : 7200,
            "byteOffset" : 10992
        },
        {
            "buffer" : 0,
            "byteLength" : 7200,
            "byteOffset" : 18192
        },
        {
            "buffer" : 0,
            "byteLength" : 4800,
            "byteOffset" : 25392
        },
        {
            "buffer" : 0,
            "byteLength" : 1800,
            "byteOffset" : 30192
        },
        {
            "buffer" : 0,
            "byteLength" : 7200,
            "byteOffset" : 31992
        },
        {
            "buffer" : 0,
            "byteLength" : 7200,
            "byteOffset" : 39192
        },
        {
            "buffer" : 0,
            "byteLength" : 4800,
            "byteOffset" : 46392
        },
        {
            "buffer" : 0,
            "byteLength" : 7200,
            "byteOffset" : 51192
        },
        {
            "buffer" : 0,
            "byteLength" : 7200,
            "byteOffset" : 58392
        },
        {
            "buffer" : 0,
            "byteLength" : 4800,
            "byteOffset" : 65592
        },
        {
            "buffer" : 0,
            "byteLength" : 7200,
            "byteOffset" : 70392
        },
        {
            "buffer" : 0,
            "byteLength" : 7200,
            "byteOffset" : 77592
        },
        {
            "buffer" : 0,
            "byteLength" : 4800,
            "byteOffset" : 84792
        }
    ],
    "buffers" : [
        {
            "byteLength" : 89592,
            "uri" : "moai.bin"
        }
    ]
}
